<svg width="15" height="15" viewBox="0 0 15 15" fill="none" xmlns="http://www.w3.org/2000/svg">
<path d="M13.2856 6.85125C13.5818 7.23875 13.5818 7.76188 13.2856 8.14875C12.3524 9.36688 10.1137 11.875 7.49995 11.875C4.8862 11.875 2.64745 9.36688 1.71432 8.14875C1.57019 7.96321 1.49194 7.73495 1.49194 7.5C1.49194 7.26505 1.57019 7.03679 1.71432 6.85125C2.64745 5.63313 4.8862 3.125 7.49995 3.125C10.1137 3.125 12.3524 5.63313 13.2856 6.85125V6.85125Z" stroke="#EC994B" stroke-width="2" stroke-linecap="round" stroke-linejoin="round"/>
<path d="M7.5 9.375C8.53553 9.375 9.375 8.53553 9.375 7.5C9.375 6.46447 8.53553 5.625 7.5 5.625C6.46447 5.625 5.625 6.46447 5.625 7.5C5.625 8.53553 6.46447 9.375 7.5 9.375Z" stroke="#EC994B" stroke-width="2" stroke-linecap="round" stroke-linejoin="round"/>
</svg>
